<?xml version="1.0" encoding="utf-8"?>
<!-- Generator: Adobe Illustrator 15.1.0, SVG Export Plug-In . SVG Version: 6.00 Build 0)  -->
<!DOCTYPE svg PUBLIC "-//W3C//DTD SVG 1.1//EN" "http://www.w3.org/Graphics/SVG/1.1/DTD/svg11.dtd">
<svg version="1.1" id="Layer_1" xmlns="http://www.w3.org/2000/svg" xmlns:xlink="http://www.w3.org/1999/xlink" x="0px" y="0px"
	 width="595.279px" height="605px" viewBox="0 43.445 595.279 605" enable-background="new 0 43.445 595.279 605"
	 xml:space="preserve">
<g>
	<g>
		<path d="M115.139,253.439c33.497,0,60.748-27.251,60.748-60.736c0-33.497-27.251-60.749-60.748-60.749
			c-33.484,0-60.736,27.252-60.736,60.749C54.403,226.188,81.655,253.439,115.139,253.439z M115.139,156.754
			c19.829,0,35.949,16.12,35.949,35.949c0,19.817-16.12,35.937-35.949,35.937c-19.811,0-35.931-16.12-35.931-35.937
			C79.208,172.874,95.328,156.754,115.139,156.754z M494.797,247.32c33.502,0,60.748-27.252,60.748-60.737
			c0-33.496-27.246-60.748-60.748-60.748c-33.485,0-60.737,27.252-60.737,60.748C434.06,220.074,461.312,247.32,494.797,247.32z
			 M494.797,150.64c19.822,0,35.942,16.12,35.942,35.949c0,19.817-16.12,35.931-35.942,35.931
			c-19.812,0-35.932-16.121-35.932-35.931C458.865,166.76,474.986,150.64,494.797,150.64z M280.031,254.767
			c-7.292,0-14.245,2.274-20.126,6.578l-36.771,26.835l-49.283-25.008c-3.982-2.012-11.519-2.935-17.049-3.208
			c-0.269-0.012-0.519-0.125-0.786-0.125h-74.41c-1.863,0-3.607,0.44-5.196,1.173c-6.423,2.31-12.436,7.649-17.258,12.162
			l-48.384,45.42c-11.388,10.679-14.061,27.698-6.488,41.366l39.115,70.892c5.161,9.37,14.382,15.656,24.775,17.228L55.908,607.452
			c-1.416,18.745,12.656,35.157,31.371,36.622c0.232,0.012,0.447,0.023,0.679,0.041c0.667,0.036,1.322,0.06,1.977,0.06
			c17.71,0,32.64-13.828,33.996-31.49l0.102-1.012l0.096,1.012c1.356,17.662,16.286,31.49,33.996,31.49
			c0.655,0,1.31-0.023,1.977-0.06c0.232-0.018,0.446-0.029,0.679-0.041c18.715-1.465,32.782-17.877,31.371-36.598l-11.424-148.278
			c0.024-0.316,0.096-0.613,0.096-0.923V343.202l-24.806-12.596v115.264l0.34,5.513l0.035,3.292l11.007,154.678
			c0.387,5.125-3.44,9.59-8.56,9.994c-0.244,0.012-0.488,0.024-0.727,0.024c-4.81,0-8.894-3.703-9.269-8.584L136.42,482.955
			c0-6.852-5.548-12.405-12.399-12.405c-6.857,0-12.399,5.554-12.399,12.405L99.198,610.786c-0.375,4.881-4.459,8.584-9.269,8.584
			c-0.244,0-0.482-0.013-0.727-0.024c-5.119-0.398-8.946-4.863-8.56-9.994l10.673-138.683h0.096l2.602-24.8v-4.565
			c5.715-4.388,9.953-10.382,12.007-17.441c2.529-8.769,1.5-17.984-2.905-25.966L94.019,381.4v-79.893l-48.248,43.795l35.634,64.588
			c2.482,4.495,0.846,10.162-3.643,12.632c-1.429,0.786-2.971,1.161-4.483,1.161c-3.279,0-6.452-1.732-8.149-4.81l-39.151-70.922
			c-2.06-3.72-1.333-8.37,1.769-11.28l48.349-45.378c4.673-5.852,13.203-6.554,16.745-6.637v-0.012h54.235
			c1.405,0,10.489-0.97,17.597,1.685l10.959,5.56l49.837,25.288l49.075-35.812c1.661-1.214,3.584-1.792,5.482-1.792
			c2.869,0,5.697,1.322,7.513,3.816c3.023,4.155,2.119,9.965-2.024,12.995l-53.688,39.181c-1.62,1.185-3.549,1.792-5.483,1.792
			c-1.44,0-2.881-0.328-4.214-1.006l-66.07-34.383l-0.048,28.645l54.885,27.853c4.732,2.411,10.09,3.697,15.441,3.697
			c7.293,0,14.245-2.28,20.127-6.578l53.664-39.164c15.174-11.096,18.52-32.461,7.447-47.634
			C301.23,260.011,290.919,254.767,280.031,254.767z M147.356,285.495l-0.28-0.852C145.635,284.649,146.29,284.936,147.356,285.495z
			 M289.527,48.895c-50.236,0-91.096,31.455-91.096,70.124c0,14.34,5.702,28.341,16.203,40.015l-5.571,36.83
			c-0.667,4.375,1.054,8.78,4.518,11.542c2.232,1.78,4.965,2.714,7.739,2.714c1.529,0,3.065-0.28,4.529-0.863l52.778-20.686
			c3.815,0.375,7.399,0.56,10.899,0.56c50.235,0,91.107-31.455,91.107-70.112C380.634,80.35,339.762,48.895,289.527,48.895z
			 M289.527,164.326c-3.78,0-7.471-0.274-11.096-0.726c-2.036-0.244-4.096,0.023-6.019,0.773l-35.616,13.954l3.28-21.704
			c0.619-4.054-0.81-8.149-3.815-10.947c-5.947-5.513-13.031-14.62-13.031-26.657c0-24.562,30.365-45.319,66.297-45.319
			c35.948,0,66.308,20.757,66.308,45.319C355.834,143.58,325.475,164.326,289.527,164.326z M592.839,343.142l-24.793-61.999
			c-2.417-6.042-6.441-11.037-11.412-14.709c-0.518-0.994-1.119-1.953-1.898-2.792c-2.352-2.506-5.626-3.923-9.055-3.923H434.067
			c-1.78,0-3.513,0.399-5.096,1.119c-11.603,2.911-21.204,11.769-24.598,23.65l-24.793,86.786c-2.715,9.5-1.185,19.686,4.19,27.966
			c5.322,8.221,14.001,13.781,23.8,15.174l23.77,3.393l2.042,30.555l-12.239,159.089c-1.417,18.745,12.655,35.157,31.371,36.622
			c0.232,0.012,0.446,0.023,0.679,0.041c0.661,0.036,1.321,0.06,1.971,0.06c17.709,0,32.639-13.828,33.996-31.49l0.102-1.023
			l0.101,1.023c1.357,17.662,16.287,31.49,33.99,31.49c0.655,0,1.311-0.023,1.977-0.06c0.232-0.018,0.446-0.029,0.679-0.041
			c18.71-1.465,32.782-17.877,31.371-36.598L545.8,456.966l4.161-62.469l20.603-5.881c9.209-2.595,16.972-9.072,21.228-17.733
			C596.048,362.131,596.406,352.059,592.839,343.142z M524.067,619.346c-0.238,0.012-0.482,0.024-0.727,0.024
			c-4.81,0-8.888-3.703-9.263-8.584l-12.429-127.831c0-6.852-5.548-12.405-12.4-12.405c-6.852,0-12.399,5.554-12.399,12.405
			l-12.43,127.831c-0.375,4.881-4.458,8.584-9.269,8.584c-0.237,0-0.481-0.013-0.726-0.024c-5.12-0.398-8.947-4.863-8.561-9.994
			l10.941-142.094l1.256-21.508l-1.625-24.358l37.901,5.411c1.274,0.22,3,0.357,4.84,0.357c9.513,0,18.18-4.096,24.431-10.573
			l-1.941,29.163h-0.231l1.44,26.646l9.751,136.962C533.02,614.482,529.192,618.947,524.067,619.346z M569.534,359.917
			c-1.161,2.357-3.269,4.125-5.804,4.839l-35.818,10.239c-0.5-0.792-0.881-1.631-1.446-2.387c-4.209-5.62-9.924-9.667-16.448-11.84
			l38.693-11.054l-13.78-36.955c-1.679-6.637-8.418-10.661-15.061-8.971c-6.626,1.667-10.644,8.394-8.983,15.013l-0.148,0.036
			l10.221,22.912l-49.676,12.87l-15.4-2.203l9.739-34.08l-0.286-0.054c1.019-6.513-3.202-12.739-9.744-14.066
			c-6.721-1.357-13.264,2.964-14.614,9.685l-16.752,59.04l76.268,10.899c5.084,0.726,8.608,5.435,7.882,10.524
			c-0.649,4.637-4.638,7.983-9.191,7.983c-0.435,0-0.881-0.024-1.333-0.101l-86.81-12.394c-2.655-0.369-5.03-1.887-6.483-4.137
			c-1.464-2.256-1.875-5.042-1.137-7.62l24.806-86.81c1.16-4.072,4.81-6.756,8.863-6.756c0.387,0,0.774,0.119,1.161,0.167v-0.167
			h99.149v0.155c3.286,0.375,6.286,2.387,7.602,5.679l24.806,62.011C570.796,354.821,570.683,357.56,569.534,359.917z"/>
	</g>
</g>
</svg>
