<?xml version="1.0" encoding="utf-8"?>
<!-- Generator: Adobe Illustrator 15.1.0, SVG Export Plug-In . SVG Version: 6.00 Build 0)  -->
<!DOCTYPE svg PUBLIC "-//W3C//DTD SVG 1.1//EN" "http://www.w3.org/Graphics/SVG/1.1/DTD/svg11.dtd">
<svg version="1.1" id="Layer_1" xmlns="http://www.w3.org/2000/svg" xmlns:xlink="http://www.w3.org/1999/xlink" x="0px" y="0px"
	 width="192.955px" height="243.839px" viewBox="0 0 192.955 243.839" enable-background="new 0 0 192.955 243.839"
	 xml:space="preserve">
<path fill-rule="evenodd" clip-rule="evenodd" d="M36.009,141.814c-0.059,0.418,0.079,0.641,0.36,0.72
	c-0.059,0.419,0.08,0.641,0.36,0.721c0.222,0.523,0.436-0.037,0,0c0.059-0.419-0.079-0.641-0.36-0.721
	C36.428,142.116,36.29,141.893,36.009,141.814c-1.206-6.121,6.162-10.771,9.722-13.684c4.332-3.542,8.372-6.977,14.043-6.482
	c-1.704-2.187-10.362-6.294-3.961-10.442c0.523-0.222-0.037-0.436,0,0c-0.84,0-1.68,0-2.521,0c0.779-3.023-0.273-4.228,1.8-6.482
	c-1.139-0.782-2.125-1.716-1.8-3.961c0.633-0.408,3.078,1.19,5.042,0.72c4.732-1.132,3.184-7.721,0-10.083
	c-5.267-0.133-8.866,1.717-13.324,1.08c-8.518-1.217-14.013-10.082-16.204-17.645c7.002-3.177,15.644-1.219,20.165,1.44
	c2.411,1.418,4.426,3.333,6.482,3.601c1.105-1.76-1.445-3.11-2.521-4.681c-3.536-5.165-2.979-14.586-3.241-22.326
	c8.311-0.602,11.583,6.882,12.963,14.404c0.927,1.284,1.555-1.966,2.521-0.72c-0.41,1.271-1.116,2.245-1.081,3.961
	c2.162-1.919,3.88-4.282,7.562-4.681c0.99,1.095-1.666,0.729-1.08,2.521c2.145-1.091,5.854-0.95,7.202,0.72
	c-0.783,0.897-2.84,0.521-3.241,1.8c1.766-0.008,4.102,0.402,5.761,1.44c0.413,1.133-0.565,0.875-0.72,1.44
	c4.172,2.31,9.141,3.822,12.604,6.842c1.333-1.908,3.125-3.356,5.042-4.681c5.468-0.187,6.989,3.572,10.442,5.401
	c0.379,1.339-1.215,0.706-1.44,1.44c3.88,1.642,4.299,6.744,4.682,11.883c2.526-0.234,4.438-1.083,7.201-1.08
	c0.74,5.204-1.517,10.469-2.881,14.764c4.722-1.641,6.268-6.456,9.362-9.723c-1.788-2.375-3.37-8.369-1.08-11.523
	c-6.732-8.66-12.813-20.045-12.603-33.849c0.243-15.968,10.604-23.446,19.805-30.608c-3.398-0.329-9.207-2.758-5.762-6.481
	c-1.227-1.774-3.094-2.907-4.321-4.681c0.868-9.936,13.641-14.726,22.687-9.002c-0.027,1.534-0.603,2.519-0.36,4.321
	c0.858,1.782,3.744,1.538,4.681,3.241c-1.395,4.063,1.211,6.42,1.801,11.163c17.557,4.745,31.688,20.118,31.688,42.491
	c0,13.596-6.496,23.545-15.484,29.888c1.136,4.25,3.669,8.593,3.601,13.323c-0.014,0.985-0.975,2.522-1.08,3.601
	c-0.697,7.173,0.797,15.512-4.681,18.725c-1.037,0.608-2.172,0.34-3.241,0.721c-3.976,1.415-6.989,5.645-13.323,5.401
	c-2.34,0.9-3.12,3.361-6.122,3.601c4.674,4.935,7.069,11.362,10.443,17.284c3.144,5.519,9.168,8.585,13.323,12.964
	c1.015,3.075,0.582,8.668,0.72,11.522c3.069-3.867,4.569-9.681,6.122-15.844c1.484-5.892,1.692-13.32,4.681-17.284
	c1.024-1.359,2.661-1.824,3.602-2.881c1.473-1.657,1.892-4.49,4.321-5.042c7.548-1.712,9.855,7.135,8.642,14.044
	c-1.278,7.278-5.135,14.138-9.002,22.686c-3.708,8.195-6.787,15.783-11.523,20.165c-5.083,4.704-9.306,1.882-12.243-3.24
	c-1.622,0.059-1.321,2.039-2.88,2.16c-2.372-0.381-4.829-0.99-7.562-0.72c-8.801,0.87-14.14,9.251-21.245,13.323
	c-8.344,4.781-15.548,7.386-25.207,9.362c-5.578,5.938-10.109,14.495-21.245,12.963c-10.195-1.402-16.147-11.162-19.085-20.524
	c-7.659,7.128-5.081,26.013-14.043,32.048c-7.247,4.88-18.105-0.06-17.285-9.002c0.255-2.777,3.786-7.314,6.122-10.803
	c4.479-6.689,9.324-13.679,13.684-20.525c3.55-5.576,6.179-13.775,14.044-11.163c0.099-3.854-0.169-10.241,0.72-14.403
	c-6.756-0.176-8.978,11.091-12.963,11.883c-2.345,0.466-5.351-1.742-5.401-3.961c-0.054-2.338,2.334-2.636,3.241-4.682
	c-7.458,1.1-15.524,0.006-19.445-3.601c0.813-4.948,1.338-10.186,3.601-13.684c-1.118-2.604-3.916-3.526-3.601-7.562
	c-9.708-3.359-17.123-9.352-21.965-16.563c-1.893-2.819-2.091-5.675-3.601-9.362c-1.389-3.394-5.68-5.11-5.761-9.003
	c3.551-1.498,5.762,3.25,8.642,4.682C23.121,124.694,29.637,133.182,36.009,141.814z M127.472,3.178
	c1.588-0.453,3.637-0.444,4.321-1.8C130.281,1.905,128.188,1.854,127.472,3.178z M125.672,4.619
	c-1.248,1.753-2.551,3.451-3.241,5.761c8.051-0.711,14.672-2.853,19.085-7.202C135.808-1.095,132.068,4.573,125.672,4.619z
	 M123.511,11.82c0.395,5.058,9.756,4.444,13.323,1.44c-0.44-4.162,2.473-4.97,5.042-6.122c-0.207-0.633,0.435-2.116-0.36-2.161
	C137.206,8.951,130.537,10.563,123.511,11.82z M144.037,10.38c-0.982-3.553-5.115-0.62-6.121,1.081c0,0.96,0,1.92,0,2.881
	c-3.355,1.926-7.844,2.719-12.604,3.241c2.623,6.857,14.81,1.25,17.645-1.8c-1.137-1.145-2.579-1.982-3.241-3.601
	c0.959-0.842,1.354-2.247,2.881-2.521c1.466,0.695,1.839,2.482,3.602,2.881c0.375-1.02,0.375-1.5,0-2.521
	C145.096,9.759,145.138,10.641,144.037,10.38z M141.516,11.82c-0.016,0.496,0.17,0.791,0.36,1.081
	c3.234,1.566,3.147,6.454,6.121,8.282C147.426,16.692,145.262,11.943,141.516,11.82z M142.957,19.382
	c0.735,0.345,1.425,0.736,2.16,1.08c-0.345-1.335-0.614-2.746-1.8-3.241C142.902,17.647,142.909,18.495,142.957,19.382z
	 M131.793,22.263c3.843,0.804,8.62-0.474,10.083-3.241C139.455,19.605,135.309,21.575,131.793,22.263z M131.074,25.144
	c3.773,2.329,11.756,0.17,12.603-3.961C140.668,22.281,134.917,23.687,131.074,25.144z M147.998,22.623c0,0.12,0,0.24,0,0.36
	c21.13,5.559,31.854,23.303,30.248,50.413c-1.094,0.426,0.391,1.91,0,0C184.012,50.075,169,25.472,147.998,22.623
	C147.572,21.529,146.087,23.014,147.998,22.623z M169.603,87.8c-0.306-0.066-0.34,0.141-0.36,0.36c-0.523,0.221,0.037,0.435,0,0
	C169.549,88.226,169.583,88.02,169.603,87.8c13.044-11.814,7.53-42.285-3.961-53.654c-5.177-5.121-13.192-8.584-20.165-10.803
	c-1.793,0.848-3.409,1.873-5.041,2.881C167.776,27.392,181.139,61.549,169.603,87.8z M124.952,29.105
	C124.428,29.326,124.989,29.54,124.952,29.105c1.608-1.191,6.025-0.958,5.041-3.601C127.85,26.242,126.274,27.546,124.952,29.105z
	 M148.358,97.882c14.658-0.113,22.96-11.249,24.126-23.766c2.193-23.536-11.23-47.424-35.649-46.812
	c-14.055,0.353-23.524,11.101-24.486,23.766c-0.946,12.483,4.048,24.342,9.363,31.688c1.488,2.058,3.502,5.153,6.121,5.041
	c-0.316-2.337-2.5-3.945-3.961-5.761c-4.729-5.877-9.028-13.542-9.723-22.686c-1.236-16.296,6.661-29.202,21.246-30.248
	c21.549-1.545,35.81,17.157,35.648,38.89c-0.116,15.641-9.184,29.52-25.206,27.728c-5.572-0.624-8.565-4.471-12.604-2.881
	C137.402,96.309,141.914,97.933,148.358,97.882z M125.312,81.678c-0.066,0.306,0.141,0.34,0.36,0.36
	c0.967,1.313,2.04,2.521,3.24,3.601c1.989-3.555,5.815-5.832,8.643-1.44c0.791-0.309,2.698-1.354,3.24-0.72
	c-0.712,2.889-0.092,7.109-2.88,7.922c-0.095-2.092,2.112-5.464,0.72-6.482c-1.923,0.958-0.902,4.86-2.521,6.122
	c18.107,10.742,34.65-5.094,33.488-25.206c-1.097-18.992-12.936-38.095-35.648-35.289c-11.528,1.424-17.357,10.306-18.726,23.406
	c0.665,0.641,1.415-1.688,3.241-1.08c-0.097,2.421,2.581,5.354,1.08,6.842c-1.751-0.649-1.503-3.298-2.16-5.042
	c-0.842,0.111-1.488,0.705-2.161,0C115.52,66.744,119.581,75.046,125.312,81.678z M54.734,75.197
	c1.991-0.409,3.673-1.128,5.761-1.44c2.574-9.122-1.757-17.927-9.362-20.165C51.087,60.61,50.206,71.555,54.734,75.197z
	 M62.656,70.516C63.179,70.294,62.619,70.081,62.656,70.516c-0.12,0-0.24,0-0.36,0c-0.746,1.294-0.44,3.641-1.081,5.041
	c-1.101,0.261-1.059-0.621-2.16-0.36c-0.115,1.45,2.512,2.027,1.8,2.881c-1.827-0.146-2.576,0.785-3.241,1.8
	c1.426,0.265,2.923,2.343,1.8,3.961c-8.464-3.61-15.275-12.474-29.167-8.282c3.062,7.535,8.674,16.512,18.725,15.844
	c3.322-0.221,6.295-2.325,10.443-1.08c0.01,0.35,0.441,0.279,0.72,0.36c1.258,3.017,6.629,5.103,4.321,9.362
	c-0.149-1.531-0.63-2.731-1.44-3.601c0.304,5.067-4.616,7.241-8.282,6.122c0.899,1.142,2.584,1.497,3.601,2.521
	c-0.663,1.978-2.619,2.663-3.241,4.681c2.047-0.121,3.598-2.634,4.681-2.521c-0.814,1.994-1.48,3.864-1.44,5.762
	c1.343,0.383,0.57-1.351,1.8-1.08c0.112,1.088-0.4,2.8,0.72,2.88c0.566-0.274,0.538-1.142,1.44-1.08
	c0.562,5.787,8.17,0.566,12.243,1.08c6.331,3.887,12.029,10.275,21.965,9.363c-1.477-6.686-2.883-13.441-5.761-18.725
	c-4.217,0.857-9.08,2.542-13.684,1.081c2.467,0.066,4.865,0.064,5.761-1.44c-1.062-0.859-2.264-1.577-2.521-3.241
	c-5.99-0.251-8.149-4.334-10.083-8.642c0.123,0.723-0.074,1.127-0.72,1.081c-3.504-2.978-3.906-9.057-5.761-13.684
	c1.136-3.73,8.198-5.132,9.362-0.36c-4.792-1.186-5.531,4.267-3.961,7.202c1.222-11.888,14.323-1.821,15.124,3.961
	c0.212-2.068,0.97-3.592,2.161-4.681c-3.892-2.187-9.961-5.37-8.642-10.443c-1.914,0.007-2.112,1.729-3.601,2.161
	c-1.405-0.756-1.833-2.488-2.521-3.961c-0.538,0.422-0.424,1.496-1.44,1.44c-0.401-2.082,1.139-2.222,2.161-2.881
	c-0.503-1.262-1.333,0.038-2.161-0.72c0.938-1.583,2.355-2.686,4.321-3.241c-3.129-0.488-3.864,1.417-6.482,1.44
	c0.575-0.986,1.344-1.777,1.801-2.881c-3.695,0.506-3.781,4.621-6.482,6.122C63.177,72.635,63.082,71.41,62.656,70.516z
	 M75.259,72.676c0.577-1.003-1.555-0.996-1.44-0.36C74.5,72.235,74.613,72.722,75.259,72.676z M73.458,75.557
	c0.202,0.519,0.562,0.879,1.081,1.081c0.268-1.172,1.786-1.095,2.521-1.801C75.755,74.219,73.747,73.568,73.458,75.557z
	 M56.534,77.717c0.894,0.053,1.748,0.067,1.801-0.72c-0.25-0.282-2.009-0.801-2.161,0C56.455,77.077,56.593,77.299,56.534,77.717z
	 M78.5,78.438c0.506,0.094,0.411,0.79,0.72,1.08c1.108-0.332,1.439-1.441,2.161-2.16C79.934,77.23,78.746,77.363,78.5,78.438z
	 M96.865,80.238c0.284-1.156,1.308-1.573,1.801-2.521C97.172,77.442,96.036,79.386,96.865,80.238z M100.465,79.878
	c1.116,0.036,1.998-0.163,2.521-0.72c-0.909-0.531-1.608-1.272-2.88-1.44C99.845,78.818,100.474,79.03,100.465,79.878z
	 M83.541,83.479c1.353-4.865,7.436-0.323,6.122,2.88c1.062-0.258,2.23-0.411,2.881-1.08C93.518,77.468,74.408,76.305,83.541,83.479z
	 M66.977,79.158c0.363,1.527-1.244,2.055-1.08,4.321c0.496-0.016,0.791,0.169,1.08,0.36c0.413-2.348,1.282-4.24,3.241-5.042
	c-0.681,0.081-0.794-0.406-1.44-0.36C69.147,79.647,67.658,78.998,66.977,79.158z M96.145,82.759
	c4.658-0.817,4.547,3.134,7.562,3.961c0.41-0.79,0.929-1.472,0.72-2.881c-0.641-0.199-1.495-0.185-1.8-0.72
	c0.627-0.333,1.933,0.012,1.8-1.08c-0.293-2.257-3.423-0.454-5.041-0.72c-0.062-1.019,0.31-2.47-0.72-2.521
	C98.57,80.863,96.949,81.403,96.145,82.759z M94.704,83.839c0.385-0.647,0.107-3.039-0.36-3.961
	C93.518,80.732,93.253,83.38,94.704,83.839z M57.975,82.039c0.429-1.07-1.518-1.547-1.8-0.72
	C56.647,81.686,57.501,81.671,57.975,82.039z M88.223,84.919c-0.16-1.641-1.254-2.346-3.241-2.16
	C84.623,85.002,86.833,85.484,88.223,84.919z M132.874,82.759c-2.184,2.857-3.219,6.863-7.922,7.202
	c0.232-0.877,0.728-1.852-0.72-1.8c-4.326,8.772,8.625,16.228,13.684,9.002c-3.263-0.819-5.106-3.055-8.643-3.601
	C134.395,93.177,139.471,84.476,132.874,82.759z M70.938,88.52c0.371-2.51,1.975-3.787,3.241-5.401
	C70.656,82.242,69.864,85.999,70.938,88.52z M76.339,84.199c-7.364-0.189-5.363,17.52,3.241,16.205
	c-0.295-3.056,0.617-4.904,1.801-6.482c-2.812-0.232-5.266-5.78-1.44-6.481C79.057,85.871,77.986,84.242,76.339,84.199z
	 M91.103,92.121c0.894,2.983,5.207,2.307,7.922,0.72c1.084-2.632,2.146-6.418,0-8.643C94.479,83.867,89.954,88.285,91.103,92.121z
	 M108.748,86.72c-0.482-1.318-1.651-1.95-2.881-2.521C105.672,86.087,107.64,87.282,108.748,86.72z M104.426,88.52
	c4.939,6.235,0.385,16.606,1.801,25.207c2.379-5.64,4.77-16.406,1.44-22.326c0.558,0.402,0.75,1.17,1.801,1.08
	c-0.315-3.165-2.261-4.701-3.961-6.481C105.208,86.901,104.52,87.414,104.426,88.52z M85.702,91.761
	c2.605-0.035,2.217-3.064,3.601-4.321C86.879,87.657,85.596,89.015,85.702,91.761z M99.746,93.921
	c2.698,3.38,3.597,9.791,1.8,14.764c1.28,1.361,1.988,3.293,3.241,4.682c-1.211-8.75,3.733-21.216-3.241-25.927
	C101.663,90.318,100.74,92.155,99.746,93.921z M79.94,88.52c-1.489,1.287,0.031,3.763,1.8,3.961
	C82.575,91.001,82.004,88.257,79.94,88.52z M89.663,89.96c-0.534,0.306-0.774,0.906-0.72,1.8
	C90.152,92.131,89.503,90.641,89.663,89.96C90.741,89.888,89.318,88.465,89.663,89.96z M91.103,102.924
	c4.124-2.589,1.126-9.097-2.521-10.083C87.144,97.083,90.098,99.936,91.103,102.924z M86.422,102.924
	c0.801,0.52,1.736,0.904,3.241,0.72c-0.438-2.682-2.063-4.178-2.88-6.482c-0.487-1.414,0.874-4.121-0.36-3.961
	C85.098,95.05,87.069,99.397,86.422,102.924z M163.122,95.722c2.301,3.46,1.842,9.681,4.321,12.963
	c0.844-5.188-1.634-10.112-2.881-14.403c-0.36,0-0.721,0-1.08,0C163.369,94.769,162.969,94.969,163.122,95.722z M100.465,124.169
	c-6.305-2.569,1.504-16.886,0.721-23.406c-0.291-2.42-1.465-3.663-2.161-5.761c-1.319-0.673-3.041,0.919-5.401,0.36
	c1.772,3.508,0.027,7.653-1.801,9.723c1.298,2.022,2.879,5.651,3.961,10.083c1.853,7.59,2.333,12.685,10.443,8.642
	c0.662-1.267,1.785-3.964,0.72-5.761C107.204,122.389,104.014,125.615,100.465,124.169z M110.909,96.082
	c-0.629,6.933-1.469,13.655-3.241,19.445c6.407-3.555,8.163-11.762,9.362-20.525C114.843,95.216,112.857,95.63,110.909,96.082z
	 M161.681,106.165c1.515-0.458,3.011,0.94,3.241-0.36c-1.379-3.302-1.27-8.093-3.961-10.083
	C159.135,98.672,161.407,102.993,161.681,106.165z M87.502,104.724c-3.988-0.934-5.587-4.255-6.122-8.642
	C79.975,100.81,82.77,106.155,87.502,104.724z M84.981,101.483c-0.231-1.449,0.468-3.829-0.36-4.681
	C83.791,98.328,82.905,100.678,84.981,101.483z M164.202,111.566c-3.185-3.297-5.066-7.896-5.401-14.043
	c-0.079-0.281-0.302-0.419-0.72-0.36C156.324,102.708,158.779,112.011,164.202,111.566z M140.076,97.882
	c-1.378,1.503-3.367,2.394-5.041,3.601c3.306,2.973,6.743,6.793,5.761,12.243c-0.967,5.37-8.25,8.708-8.281,13.324
	c3.843-0.961,9.15-0.978,12.603,0.359c2.896-1.665,6.363-2.759,9.723-3.961c-0.356-6.238,1.559-10.205,3.601-14.043
	c-1.778-2.783-2.296-6.826-2.521-11.163C151.342,99.116,144.113,99.559,140.076,97.882z M130.713,109.405
	c1.046-2.435,2.074-4.887,2.521-7.922c-2.965-0.036-5.337-0.665-7.202-1.8C125.936,104.581,128.012,107.305,130.713,109.405z
	 M118.47,108.325c1.729,1.271-0.286,6.288,1.801,7.202c1.452-0.228,1.817-1.543,3.601-1.44c3.235,2.646,5.185,6.579,7.922,9.723
	c2.38-2.662,5.12-4.962,6.481-8.642c-8.062-1.3-11.682-7.043-14.043-14.043C122.691,103.904,120.413,105.946,118.47,108.325z
	 M131.793,110.846c1.973,1.389,3.569,3.152,7.202,2.881c1.209-5.01-1.546-8.959-4.682-10.803
	C133.731,105.822,132.678,108.25,131.793,110.846z M165.282,111.206c1.438,6.645-2.406,12.923-3.24,17.285
	c4.701-1.952,9.04-21.791,0.72-20.526C163.431,109.216,164.934,109.633,165.282,111.206z M114.149,110.125
	c0.56,1.241,2.905,0.696,3.602,1.801c0-0.72,0-1.44,0-2.161C116.528,109.863,114.831,109.487,114.149,110.125z M156.64,125.969
	c2.432-0.53,1.225-3.578,1.44-5.401c0.376-3.186,1.656-6.522,2.16-9.002c-0.46-0.02-0.498-0.461-1.08-0.36
	C156.855,114.47,155.447,120.39,156.64,125.969z M115.95,112.286c-3.973,0.109-4.585,3.578-7.202,5.042
	c0.177,1.617-0.183,2.698-0.36,3.961c2.293-0.349,2.528-2.754,5.401-2.521c-1.32,2.357-5.539,2.227-3.961,6.481
	c4.418-0.624,8.367-1.716,11.163-3.961C119.913,117.686,118.518,114.399,115.95,112.286z M54.374,115.167
	c1.343,1.658,3.933,2.069,7.202,1.8c-0.982-0.428-2.27-2.289-4.321-1.44C57.49,111.748,55.121,112.826,54.374,115.167z
	 M102.266,114.447c1.658,0.144,0.831-1.533,0-1.8C102.266,113.247,102.266,113.847,102.266,114.447z M159.161,122.729
	c0.874,0.613,1.899,2.429,2.881,1.8c1.025-3.535,2.169-6.953,2.16-11.522c-0.956-0.004-2.057,0.136-2.521-0.36
	C160.199,115.365,159.694,119.062,159.161,122.729z M100.106,115.527c1.617,0.28,1.192-2.25,0.359-2.521
	C100.642,114.143,99.817,114.278,100.106,115.527z M99.385,118.408c1.712,0.854,2.915-1.547,5.762-0.72
	c0.094-1.054-0.814-1.106-0.721-2.161C102.437,116.178,100.078,116.459,99.385,118.408z M122.792,115.527
	c-0.284,0.796-1.26,0.901-1.801,1.44c0.415,1.625,1.395,2.686,1.08,5.042c-0.465,0.735-1.489,0.911-1.8,1.8
	c3.456,1.225,5.816,3.546,9.002,5.041c0.505-0.575,1.24-0.92,2.16-1.08C129.445,122.796,127.037,118.243,122.792,115.527z
	 M82.461,121.648c-2.916-1.683-6.119-5.075-9.002-5.401c-4.47-0.506-9.147,2.544-14.764,2.521
	c7.543,5.281,22.306,10.987,34.209,6.842C88.77,125.172,85.894,123.63,82.461,121.648z M103.707,120.928
	c-1.553-0.248-2.142-1.459-4.321-1.08c-0.143,4.839,6.579,3.502,6.122-0.72c-1.16,0.079-1.524-0.637-2.881-0.36
	C102.301,119.961,104.626,120.33,103.707,120.928z M7.202,125.25c-1.344-1.781-3.895-4.263-5.761-4.321
	C3.466,122.023,4.668,126.969,7.202,125.25z M61.936,122.729c-7.719-0.953-13.23,4.386-17.284,7.922
	c-2.877,2.51-7.357,6.098-7.562,8.643c-0.418,5.201,6.28,7.82,10.083,10.803c6.52-4.044,12.528-10.518,23.406-9.003
	c-1.927,0.595-4.551,0.49-6.122,1.44c1.906,1.335,5.151,1.331,7.202,2.521c-4.344,0.504-6.779-0.902-9.362-2.16
	c-2.167,1.055-13.262,5.427-13.324,8.282c-0.028,1.311,3.188,1.599,2.521,3.601c3.132-0.011,5.54,0.702,6.842,2.521
	c-1.464,1.897-3.104,3.619-3.241,6.842c1.877,4.166,8.386,5.481,7.202,11.523c13.734-1.254,26.374-25.141,14.404-34.209
	c0.764-2.17,3.706-3.903,3.601-5.762c-2.71-0.171-5.24-0.521-7.562-1.08c-0.747-2.613-1.18-5.542-1.8-8.282
	C67.983,125.762,65.3,123.144,61.936,122.729z M106.227,124.889c-0.094,1.055,0.814,1.106,0.72,2.161
	c1.457,0.333,2.224-3.314,0.721-3.602C107.624,124.366,107.143,124.845,106.227,124.889z M136.834,137.132
	c-1.985-2.12-5.104-4.392-8.642-6.842c-2.357-1.632-8.247-6.773-10.442-5.762c-3.622,1.67-8.786,1.699-10.443,3.962
	c-0.573,4.909-1.173,11.037-5.041,11.522c-4.515,0.567-7.898-6.52-10.443-7.922c-2.67-1.472-5.005-0.382-7.202-1.44
	c5.901,4.979,8.407,17.464,4.321,26.287c6.929,2.645,16.652,0.949,23.766-0.36c3.405-4.637,5.806-10.278,9.362-14.764
	c4.743,0.178,9.397,0.445,14.044,0.72C136.94,141.319,136.053,138.392,136.834,137.132z M142.596,131.371
	c-0.21,1.651,1.202,1.679,1.801,2.521c8.024-0.138,14.126-2.198,16.204-8.282c-0.481-0.359-0.707-0.974-1.44-1.081
	C156.817,129.686,148.819,132.423,142.596,131.371z M146.198,128.85c0.739,0.101,0.718,0.962,1.08,1.44
	c3.019-0.822,5.773-1.907,8.282-3.24c-0.28-0.801-0.208-1.953-1.081-2.161C151.838,126.329,148.103,126.675,146.198,128.85z
	 M91.463,129.21c2.695,4.146,6.099,7.585,10.803,9.723c2.55-2.351,5.078-8.914,2.521-12.964c-4.128-0.046-4.329,3.834-6.121,6.122
	c-0.463-2.863,0.975-3.826,1.44-5.762C96.683,124.305,93.373,126.74,91.463,129.21z M13.323,130.651
	c-2.759-0.009-4.481-4.467-6.122-3.241c1.262,0.898,2.036,2.285,2.521,3.961c-1.557-0.003-1.422-1.698-2.521-2.16
	c2.378,8.914,9.302,15.776,16.204,20.165c2.35,1.494,5.213,3.381,7.922,2.881c-1.901-1.219-3.995-2.246-4.681-4.681
	c1.799,0.428,3.841,4.23,5.042,2.88c0.731-1.106-1.959-1.869-1.8-3.601c1.328,0.353,1.784,1.577,2.88,2.16
	c0.759-1.281,2.289-1.792,3.601-2.521c-5.04-10.804-12.932-20.676-27.727-20.525C9.982,127.514,13.149,129.138,13.323,130.651z
	 M73.819,133.532c2.704,0.776,6.675,0.287,8.642,1.801c-0.757,2.604-3.086,3.636-3.961,6.121c8.618,6.171,2.86,21.091-2.161,27.007
	c5.79-3.865,12.366-10.556,13.323-19.445c1.075-9.976-4.238-16.384-10.083-21.245c-2.891,0.13-4.691-0.83-7.202-1.08
	C72.884,128.945,73.253,131.337,73.819,133.532z M133.955,130.291c3.862-1.545,8.055-0.167,11.883,0.36
	C146.058,127.124,132.232,126.065,133.955,130.291z M90.743,130.291c-0.69-0.304-0.975-1.579-0.36-2.16
	c-2.045,0.235-5.035-0.474-6.481,0.36C85.942,129.095,88.658,130.928,90.743,130.291z M130.353,129.931
	c0.937,0.144,1.086,1.074,2.161,1.08c0.612-0.607-0.21-1.618-0.721-2.161C131.695,129.591,130.452,129.189,130.353,129.931z
	 M134.674,132.091c0.906,1.015,1.203,2.638,2.521,3.241c1.979,0.058,2.971-0.871,4.321-1.44c0.079-1.16-0.637-1.524-0.36-2.881
	C139.176,130.604,135.882,130.674,134.674,132.091z M138.275,136.413c1.183,3.103,5.308,0.203,6.122-1.44
	C141.9,133.83,141.145,136.805,138.275,136.413z M149.798,183.584c-0.649,4.514-4.189,8.052-5.041,11.163
	c2.279-1.172,6.293-1.814,9.362-1.08c-0.336-11.019,2.128-19.237,7.922-24.127c-0.838-1.796-2.979-3.425-4.682-5.041
	c-1.541-1.463-3.498-3.945-4.681-3.601c1.1,4.042,0.963,10.354-0.36,14.043c0.607-15.903-4.655-25.834-12.243-34.208
	c-0.435-0.48-1.123-2.29-2.16-1.44c-0.436,1.604,0.124,4.205-1.44,4.681c-4.45-0.472-9.149-0.693-14.044-0.72
	c-2.988,4.813-5.589,10.015-9.002,14.403c-7.697,1.797-18.068,3.246-25.567,0.36c-4.146,8.697-12.621,13.065-20.525,18.005
	c-1.508,11.06-0.532,21.955,2.881,29.887c2.132,4.957,5.487,8.265,7.562,12.243c-6.669-4.133-8.876-12.729-11.883-20.524
	c-7.711,11.464,5.05,31.458,18.004,31.688c16.249,0.289,16.529-21.174,31.328-21.605c-2.045,0.676-4.531,2.074-6.481,3.602
	c-1.718,1.345-4.261,3.419-3.961,4.681c10.195-2.842,19.271-6.63,27.007-11.883C139.607,198.804,144.884,191.856,149.798,183.584z
	 M181.846,143.974c2.684,0.438,4.017,2.226,3.961,5.401c0.893-0.548,2.792-0.089,3.602-0.72
	C191.444,141.484,183.61,138.237,181.846,143.974z M37.449,144.334c-0.016,0.616,0.268,0.933,0.72,1.08
	C38.186,144.798,37.902,144.482,37.449,144.334C37.228,143.811,37.014,144.371,37.449,144.334z M171.764,167.38
	c-1.782,6.873-3.012,13.523-7.202,17.284c0.328-0.796,0.8-2.397,0.36-2.881c-2.942-0.658-4.443-2.758-7.202-3.601
	c-1.094,2.867-1.999,5.923-2.16,9.723c3.939,2.542,6.422,6.541,10.082,9.362c1.523-7.178,4.876-13.439,8.643-20.886
	c4.594-9.083,3.155-21.918,10.442-27.007c-0.239-1.681-0.842-2.999-1.801-3.961C174.417,147.187,174.074,158.469,171.764,167.38z
	 M191.569,150.456c0.006-1.926,0.145-3.985-0.72-5.041C191.076,147.369,189.549,149.807,191.569,150.456z M39.25,146.495
	c-4.584,0.661-8.805,6.347-5.401,11.523c0.163-2.124,1.404-5.068,2.521-5.041c-0.495,2.388-3.217,7.312,0.72,7.922
	c0.281-1.648,1.933-3.817,2.881-3.602c-0.663,1.618-1.479,3.083-2.161,4.682c0.781,0.54,0.839,1.802,2.161,1.801
	c2.749-3.612,6.922-5.801,10.083-9.003C47.877,150.591,42.673,149.433,39.25,146.495z M185.807,150.816
	c0.178,4.379-1.413,6.988-2.881,9.723c0.183-2.938,1.259-4.983,1.44-7.922c-6.034,3.789-4.427,14.268-7.201,21.605
	c-2.885,7.628-9.314,14.689-10.083,23.406c7.515-3.681,11.315-12.471,14.764-20.166c3.531-7.879,8.606-16.458,8.643-25.926
	c-1.725,1.52-2.266,6.131-4.321,6.121c0.939-2.421,2.291-4.431,2.521-7.562C187.391,150,186.953,150.761,185.807,150.816z
	 M48.612,157.297c-0.555,1.54,1.973,1.836,1.08,2.521c-1.054,0.095-1.106-0.813-2.16-0.72c-1.396,1.365-3.68,1.842-4.682,3.601
	c0.796,0.422,1.629,2.668,1.081,3.241c-0.967-0.474-0.719-2.162-2.161-2.16c-0.751,2.205-0.392,5.731,1.08,6.841
	c0.963-0.957,2.509-1.331,4.321-1.439c0.509-3.812,3.826-4.816,6.842-6.122c-0.012-2.772,1.322-4.199,2.521-5.762
	C54.21,155.816,50.672,155.486,48.612,157.297z M32.768,175.302c5.118,3.156,20.055,5.966,22.686-1.44
	c-2.067-2.134-3.815-4.587-6.482-6.121c-0.612,0.708-0.414,2.227-1.08,2.88c-3.392-0.631-3.904,1.618-6.122,2.161
	c-0.766-2.355-1.93-4.312-1.8-7.562c-2.033-0.248-2.545-2.018-4.321-2.521C34.381,166.592,33.178,170.55,32.768,175.302z
	 M61.215,173.142c-0.246-1.408-6.375-8.285-8.282-8.282c-0.729,0.001-2.029,1.567-2.521,1.44c1.086,3.703,6.487,4.442,6.482,7.922
	c-0.005,3.268-4.983,4.45-6.122,7.922c1.267,0.773,2.011,2.07,3.601,2.521C55.866,180.683,62.116,178.295,61.215,173.142z
	 M158.44,176.743c1.756,1.005,3.23,2.291,5.402,2.881c-0.412-3.069,0.993-7.955-1.081-9.362
	C161.14,172.241,159.245,173.946,158.44,176.743z M52.934,186.465c-0.768-1.513-1.655-2.906-3.601-3.241
	C48.364,184.975,51.209,187.407,52.934,186.465z M156.28,194.027c1.317-0.123,1.648-1.232,2.16-2.16
	c-1.137-0.543-1.54-1.82-3.24-1.801C155.025,191.921,155.542,193.084,156.28,194.027z M51.853,202.669
	c-4.607,7.298-8.253,12.892-12.963,20.165c-2.938,4.536-8.2,9.201-5.041,13.684c8.915,0.393,9.768-7.276,12.603-12.964
	c-0.373,8.629-4.347,13.658-12.243,14.765c5.382,6.847,13.204-1.789,15.124-7.202c0.015,6.856-5.169,8.514-9.002,11.522
	c9.138,0.094,12.379-7.128,14.404-14.764c1.333-5.028,1.454-11.271,3.601-15.483c1.027-2.016,3.561-3.629,3.961-5.042
	c0.715-2.527-0.228-5.65,0.72-7.922c1.197-2.869,4.247-3.542,2.521-7.201C57.944,188.798,55.112,197.508,51.853,202.669z"/>
<path fill-rule="evenodd" clip-rule="evenodd" fill="#FFFFFF" d="M131.793,1.378c-0.685,1.356-2.733,1.347-4.321,1.8
	C128.188,1.854,130.281,1.905,131.793,1.378z"/>
<path fill-rule="evenodd" clip-rule="evenodd" fill="#FFFFFF" d="M141.516,3.178c-4.413,4.349-11.034,6.49-19.085,7.202
	c0.69-2.311,1.993-4.008,3.241-5.761C132.068,4.573,135.808-1.095,141.516,3.178z"/>
<path fill-rule="evenodd" clip-rule="evenodd" fill="#FFFFFF" d="M141.516,4.979c0.795,0.045,0.153,1.528,0.36,2.161
	c-2.569,1.152-5.482,1.96-5.042,6.122c-3.567,3.004-12.929,3.617-13.323-1.44C130.537,10.563,137.206,8.951,141.516,4.979z"/>
<path fill-rule="evenodd" clip-rule="evenodd" fill="#FFFFFF" d="M146.198,10.02c0.375,1.02,0.375,1.5,0,2.521
	c-1.763-0.398-2.136-2.186-3.602-2.881c-1.526,0.274-1.922,1.679-2.881,2.521c0.662,1.619,2.104,2.457,3.241,3.601
	c-2.835,3.051-15.021,8.658-17.645,1.8c4.76-0.521,9.248-1.315,12.604-3.241c0-0.96,0-1.921,0-2.881
	c1.006-1.7,5.139-4.633,6.121-1.081C145.138,10.641,145.096,9.759,146.198,10.02z"/>
<path fill-rule="evenodd" clip-rule="evenodd" fill="#FFFFFF" d="M147.998,21.183c-2.974-1.828-2.887-6.716-6.121-8.282
	c-0.19-0.29-0.376-0.585-0.36-1.081C145.262,11.943,147.426,16.692,147.998,21.183z"/>
<path fill-rule="evenodd" clip-rule="evenodd" fill="#FFFFFF" d="M143.317,17.222c1.186,0.495,1.455,1.906,1.8,3.241
	c-0.735-0.344-1.425-0.735-2.16-1.08C142.909,18.495,142.902,17.647,143.317,17.222z"/>
<path fill-rule="evenodd" clip-rule="evenodd" fill="#FFFFFF" d="M141.876,19.022c-1.463,2.767-6.24,4.044-10.083,3.241
	C135.309,21.575,139.455,19.605,141.876,19.022z"/>
<path fill-rule="evenodd" clip-rule="evenodd" fill="#FFFFFF" d="M143.676,21.183c-0.847,4.131-8.829,6.29-12.603,3.961
	C134.917,23.687,140.668,22.281,143.676,21.183z"/>
<path fill-rule="evenodd" clip-rule="evenodd" fill="#FFFFFF" d="M147.998,22.623C146.087,23.014,147.572,21.529,147.998,22.623
	L147.998,22.623z"/>
<path fill-rule="evenodd" clip-rule="evenodd" fill="#FFFFFF" d="M147.998,22.623c21.003,2.849,36.015,27.452,30.248,50.773
	c1.606-27.109-9.118-44.854-30.248-50.413C147.998,22.863,147.998,22.743,147.998,22.623z"/>
<path fill-rule="evenodd" clip-rule="evenodd" fill="#FFFFFF" d="M169.603,87.8c11.536-26.25-1.827-60.408-29.167-61.576
	c1.632-1.008,3.248-2.033,5.041-2.881c6.973,2.219,14.988,5.682,20.165,10.803C177.133,45.515,182.647,75.985,169.603,87.8z"/>
<path fill-rule="evenodd" clip-rule="evenodd" fill="#FFFFFF" d="M124.952,29.105c1.322-1.559,2.898-2.863,5.041-3.601
	C130.977,28.147,126.56,27.914,124.952,29.105z"/>
<path fill-rule="evenodd" clip-rule="evenodd" fill="#FFFFFF" d="M133.234,92.841c4.038-1.59,7.031,2.257,12.604,2.881
	c16.022,1.792,25.09-12.086,25.206-27.728c0.161-21.733-14.1-40.435-35.648-38.89c-14.585,1.045-22.482,13.952-21.246,30.248
	c0.694,9.145,4.994,16.809,9.723,22.686c1.461,1.816,3.645,3.424,3.961,5.761c-2.619,0.112-4.633-2.983-6.121-5.041
	c-5.315-7.346-10.31-19.205-9.363-31.688c0.962-12.666,10.432-23.414,24.486-23.766c24.419-0.612,37.843,23.276,35.649,46.812
	c-1.166,12.517-9.468,23.653-24.126,23.766C141.914,97.933,137.402,96.309,133.234,92.841z"/>
<path fill-rule="evenodd" clip-rule="evenodd" fill="#FFFFFF" d="M124.952,29.105C124.989,29.54,124.428,29.326,124.952,29.105
	L124.952,29.105z"/>
<path fill-rule="evenodd" clip-rule="evenodd" fill="#FFFFFF" d="M125.672,82.039c1.94,0.778,4.802,0.229,5.041-1.801
	c0.184-2.753-2.686-1.416-1.08-3.961c-0.53-1.861-4.763-1.251-5.042,0.36c0.594,2.805,1.491,1.745,0.721,5.041
	c-5.731-6.632-9.792-14.935-10.083-27.007c0.673,0.705,1.319,0.111,2.161,0c0.657,1.743,0.409,4.392,2.16,5.042
	c1.501-1.488-1.177-4.421-1.08-6.842c-1.826-0.608-2.576,1.721-3.241,1.08c1.368-13.1,7.197-21.982,18.726-23.406
	c22.713-2.806,34.552,16.297,35.648,35.289c1.162,20.112-15.381,35.948-33.488,25.206c1.618-1.262,0.598-5.164,2.521-6.122
	c1.393,1.018-0.814,4.39-0.72,6.482c2.788-0.813,2.168-5.033,2.88-7.922c-0.542-0.635-2.449,0.411-3.24,0.72
	c-2.827-4.392-6.653-2.115-8.643,1.44C127.712,84.559,126.639,83.352,125.672,82.039z M133.594,33.426
	c1.119,0.939,1.446-1.219,3.24-0.72c0.087,0.514,0.594,0.607,0.721,1.081c-0.428,2.213-2.118,3.164-2.521,5.401
	c2.021-0.5,4.615-0.426,5.401-2.161c-1.483-0.283-1.848,0.553-3.241,0.36c0.891-1.379,2.36-3.32,1.44-5.401
	C136.934,31.355,133.738,31.401,133.594,33.426z M128.913,35.227c1.018,0.297,0.934-0.508,1.801-0.36
	c0.785,1.735,0.217,4.825,2.521,5.042c0.582-1.992-1.333-4.363-1.44-6.842C130.053,32.915,128.28,34.147,128.913,35.227z
	 M145.117,37.027c1.132,0.599,1.472-1.339,1.801-0.36c0.779,1.741,0.678,4.364,2.521,5.041c0.08-0.28,0.302-0.418,0.721-0.36
	c-1.013-2.229-1.316-5.166-2.881-6.842C146.433,35.223,144.918,35.268,145.117,37.027z M124.952,40.988
	c1.018,0.298,0.933-0.507,1.801-0.36c0.785,1.735,0.217,4.824,2.521,5.041c0.582-1.992-1.333-4.363-1.44-6.842
	C126.092,38.676,124.319,39.909,124.952,40.988z M138.635,64.754C146.004,69.268,151.8,75.355,157,82.039
	c-1.714,0.994,0.241,2.612,0.359,3.961c1.111-0.107,2.343-1.954,3.602-0.72c1.348,1.994-2.011,1.95-2.161,3.601
	c3.045,0.442,4.688-3.261,2.881-5.401c-2.07-0.838-3.624,1.99-3.961-0.36c0.369-1.396,2.411,1.116,2.16-0.72
	c-1.315-3.462-5.388-5.45-8.281-8.282c-2.995-2.931-5.885-6.158-8.643-9.002c0-0.72,0-1.44,0-2.161
	c-5.419-5.343-3.63-17.417-7.922-23.046C133.75,47.635,141.411,56.584,138.635,64.754z M119.55,42.428
	c1.018,0.298,0.933-0.507,1.801-0.36c0.785,1.735,0.217,4.824,2.521,5.041c0.582-1.992-1.333-4.363-1.44-6.842
	C120.69,40.116,118.917,41.349,119.55,42.428z M154.839,44.949c1.363,1.101,1.492-1.44,3.601-0.72
	c1.164,2.719-1.719,3.873-1.8,6.481c2.013-0.508,4.261-0.78,5.401-2.161c-1.012-0.906-2.07,0.324-3.241,0.36
	c0.831-1.471,2.236-4.055,0.721-5.762C157.241,43.03,155.167,43.116,154.839,44.949z M126.032,57.912
	c1.062-2.006,0.358-4.399-0.72-6.122C118.008,48.587,120.307,62.274,126.032,57.912z M161.321,58.632
	c1.337,0.158,2.884-1.732,3.602,0c-0.317,1.003-1.786,0.854-1.801,2.161c1.427,0.133,2.201-0.844,2.881,0.36
	c0.487,2.408-2.583,1.259-2.881,2.881c2.909,0.269,4.478-0.804,4.682-3.241c-0.354-0.846-1.548-0.854-2.161-1.44
	c0.891-0.505,0.636-1.241,0.36-2.161C164.465,56.406,161.315,56.716,161.321,58.632z M119.55,68.355
	c1.619,0.519,3.201-0.853,3.601-0.36c-0.068,1.852-2.513,1.328-2.521,3.241c3.788,0.101,5.198-5.36,2.521-7.562
	C119.159,62.734,117.402,66.241,119.55,68.355z M161.681,76.277c0.838-0.602,1.94-0.94,3.241-1.08
	c0.124,0.836,0.232,1.688,1.44,1.44c0.415-1.577-0.558-1.843,0.72-3.241c-2.375,0.334-1.787-2.293-2.521-3.601
	C161.741,69.84,160.916,74.954,161.681,76.277z M147.278,92.481c1.947,1.363,6.104-0.155,5.041-3.241
	c-0.684-1.984-3.16-1.134-4.682-1.08c0.116-1.007,3.312-2.226,1.44-2.881C146.102,86.077,144.843,90.777,147.278,92.481z"/>
<path fill-rule="evenodd" clip-rule="evenodd" d="M138.635,31.986c0.92,2.082-0.55,4.022-1.44,5.401
	c1.394,0.192,1.758-0.643,3.241-0.36c-0.786,1.734-3.38,1.661-5.401,2.161c0.402-2.238,2.093-3.188,2.521-5.401
	c-0.127-0.473-0.634-0.566-0.721-1.081c-1.794-0.499-2.121,1.659-3.24,0.72C133.738,31.401,136.934,31.355,138.635,31.986z"/>
<path fill-rule="evenodd" clip-rule="evenodd" d="M131.793,33.066c0.107,2.479,2.022,4.85,1.44,6.842
	c-2.304-0.217-1.735-3.307-2.521-5.042c-0.867-0.147-0.783,0.658-1.801,0.36C128.28,34.147,130.053,32.915,131.793,33.066z"/>
<path fill-rule="evenodd" clip-rule="evenodd" d="M147.278,34.506c1.564,1.676,1.868,4.613,2.881,6.842
	c-0.419-0.059-0.641,0.08-0.721,0.36c-1.843-0.677-1.741-3.3-2.521-5.041c-0.329-0.979-0.669,0.959-1.801,0.36
	C144.918,35.268,146.433,35.223,147.278,34.506z"/>
<path fill-rule="evenodd" clip-rule="evenodd" d="M127.833,38.827c0.107,2.479,2.022,4.85,1.44,6.842
	c-2.304-0.217-1.735-3.306-2.521-5.041c-0.868-0.147-0.783,0.658-1.801,0.36C124.319,39.909,126.092,38.676,127.833,38.827z"/>
<path fill-rule="evenodd" clip-rule="evenodd" d="M135.035,39.908c4.292,5.628,2.503,17.703,7.922,23.046c0,0.72,0,1.44,0,2.161
	c2.758,2.844,5.647,6.071,8.643,9.002c2.894,2.833,6.966,4.82,8.281,8.282c0.251,1.836-1.791-0.676-2.16,0.72
	c0.337,2.35,1.891-0.478,3.961,0.36c1.808,2.14,0.164,5.843-2.881,5.401c0.15-1.651,3.509-1.607,2.161-3.601
	c-1.259-1.234-2.49,0.613-3.602,0.72c-0.118-1.349-2.073-2.967-0.359-3.961c-5.2-6.684-10.996-12.771-18.365-17.285
	C141.411,56.584,133.75,47.635,135.035,39.908z M141.876,64.394c-0.044-0.917-0.524-1.396-1.44-1.44
	C139.404,64.177,141.066,65.839,141.876,64.394z"/>
<path fill-rule="evenodd" clip-rule="evenodd" d="M122.431,40.268c0.107,2.479,2.022,4.85,1.44,6.842
	c-2.304-0.217-1.735-3.306-2.521-5.041c-0.868-0.147-0.783,0.658-1.801,0.36C118.917,41.349,120.69,40.116,122.431,40.268z"/>
<path fill-rule="evenodd" clip-rule="evenodd" d="M159.521,43.148c1.516,1.707,0.11,4.291-0.721,5.762
	c1.171-0.036,2.229-1.267,3.241-0.36c-1.141,1.381-3.389,1.652-5.401,2.161c0.081-2.609,2.964-3.762,1.8-6.481
	c-2.108-0.72-2.237,1.82-3.601,0.72C155.167,43.116,157.241,43.03,159.521,43.148z"/>
<path fill-rule="evenodd" clip-rule="evenodd" d="M125.312,51.791c1.078,1.723,1.782,4.115,0.72,6.122
	C120.307,62.274,118.008,48.587,125.312,51.791z M124.591,57.552c0.764-1.838,0.495-5.453-2.16-5.042
	C121.569,54.448,122.31,57.59,124.591,57.552z"/>
<path fill-rule="evenodd" clip-rule="evenodd" fill="#FFFFFF" d="M122.431,52.511c2.655-0.411,2.924,3.204,2.16,5.042
	C122.31,57.59,121.569,54.448,122.431,52.511z"/>
<path fill-rule="evenodd" clip-rule="evenodd" fill="#FFFFFF" d="M51.133,53.591c7.605,2.238,11.937,11.043,9.362,20.165
	c-2.088,0.312-3.77,1.031-5.761,1.44C50.206,71.555,51.087,60.61,51.133,53.591z"/>
<path fill-rule="evenodd" clip-rule="evenodd" d="M166.002,57.192c0.275,0.92,0.53,1.656-0.36,2.161
	c0.613,0.587,1.807,0.594,2.161,1.44c-0.204,2.437-1.772,3.51-4.682,3.241c0.298-1.622,3.368-0.473,2.881-2.881
	c-0.68-1.204-1.454-0.227-2.881-0.36c0.015-1.306,1.483-1.157,1.801-2.161c-0.718-1.732-2.265,0.158-3.602,0
	C161.315,56.716,164.465,56.406,166.002,57.192z"/>
<path fill-rule="evenodd" clip-rule="evenodd" fill="#FFFFFF" d="M140.436,62.954c0.916,0.044,1.396,0.524,1.44,1.44
	C141.066,65.839,139.404,64.177,140.436,62.954z"/>
<path fill-rule="evenodd" clip-rule="evenodd" d="M123.151,63.674c2.678,2.202,1.268,7.663-2.521,7.562
	c0.008-1.914,2.452-1.389,2.521-3.241c-0.399-0.492-1.981,0.879-3.601,0.36C117.402,66.241,119.159,62.734,123.151,63.674z
	 M120.63,67.275c1.345,0.144,2.113-0.288,2.161-1.44c-0.463-0.617-0.745-1.416-1.801-1.44
	C120.198,65.38,119.654,66.17,120.63,67.275z"/>
<path fill-rule="evenodd" clip-rule="evenodd" fill="#FFFFFF" d="M120.991,64.394c1.056,0.024,1.338,0.823,1.801,1.44
	c-0.048,1.152-0.816,1.584-2.161,1.44C119.654,66.17,120.198,65.38,120.991,64.394z"/>
<path fill-rule="evenodd" clip-rule="evenodd" fill="#FFFFFF" d="M62.656,70.516c0.426,0.894,0.521,2.119,0.72,3.241
	c2.701-1.5,2.787-5.616,6.482-6.122c-0.457,1.104-1.226,1.895-1.801,2.881c2.618-0.023,3.353-1.929,6.482-1.44
	c-1.966,0.555-3.384,1.658-4.321,3.241c0.828,0.758,1.657-0.542,2.161,0.72c-1.022,0.659-2.562,0.799-2.161,2.881
	c1.016,0.056,0.903-1.018,1.44-1.44c0.688,1.473,1.116,3.205,2.521,3.961c1.489-0.432,1.687-2.154,3.601-2.161
	c-1.319,5.073,4.75,8.256,8.642,10.443c-1.191,1.089-1.948,2.613-2.161,4.681c-0.8-5.782-13.901-15.849-15.124-3.961
	c-1.57-2.936-0.831-8.388,3.961-7.202c-1.164-4.772-8.226-3.37-9.362,0.36c1.855,4.626,2.257,10.706,5.761,13.684
	c0.646,0.046,0.843-0.358,0.72-1.081c1.934,4.308,4.092,8.391,10.083,8.642c0.256,1.665,1.459,2.382,2.521,3.241
	c-0.896,1.504-3.294,1.507-5.761,1.44c4.604,1.462,9.467-0.224,13.684-1.081c2.878,5.284,4.285,12.04,5.761,18.725
	c-9.936,0.912-15.634-5.476-21.965-9.363c-4.073-0.514-11.681,4.707-12.243-1.08c-0.902-0.062-0.875,0.806-1.44,1.08
	c-1.12-0.08-0.608-1.792-0.72-2.88c-1.23-0.271-0.458,1.463-1.8,1.08c-0.041-1.897,0.626-3.768,1.44-5.762
	c-1.083-0.113-2.634,2.4-4.681,2.521c0.622-2.019,2.578-2.704,3.241-4.681c-1.017-1.024-2.702-1.379-3.601-2.521
	c3.666,1.12,8.586-1.055,8.282-6.122c0.811,0.87,1.291,2.07,1.44,3.601c2.308-4.259-3.063-6.345-4.321-9.362
	c-0.279-0.081-0.71-0.01-0.72-0.36c-4.147-1.245-7.121,0.859-10.443,1.08c-10.051,0.667-15.663-8.31-18.725-15.844
	c13.893-4.192,20.703,4.672,29.167,8.282c1.123-1.618-0.374-3.696-1.8-3.961c0.665-1.016,1.414-1.946,3.241-1.8
	c0.712-0.854-1.915-1.431-1.8-2.881c1.101-0.261,1.059,0.621,2.16,0.36c0.641-1.4,0.334-3.747,1.081-5.041
	C62.416,70.516,62.536,70.516,62.656,70.516z M32.408,76.637c0.641,5.495,6.674,8.679,10.803,11.883
	c4.354,0.273,7.583-0.579,10.803-1.44c1.341,1.106,4.964,2.791,6.842,1.081C49.751,86.177,47.03,73.903,32.408,76.637z"/>
<path fill-rule="evenodd" clip-rule="evenodd" d="M164.562,69.795c0.733,1.308,0.146,3.935,2.521,3.601
	c-1.277,1.398-0.305,1.664-0.72,3.241c-1.208,0.247-1.316-0.604-1.44-1.44c-1.301,0.14-2.403,0.478-3.241,1.08
	C160.916,74.954,161.741,69.84,164.562,69.795z M162.761,74.477c0.681,0.081,0.795-0.406,1.44-0.36
	c-0.038-0.922-0.203-1.716-0.72-2.16C163.421,72.976,162.822,73.457,162.761,74.477z"/>
<path fill-rule="evenodd" clip-rule="evenodd" fill="#FFFFFF" d="M62.656,70.516C62.619,70.081,63.179,70.294,62.656,70.516
	L62.656,70.516z"/>
<path fill-rule="evenodd" clip-rule="evenodd" fill="#FFFFFF" d="M73.819,72.316c-0.115-0.636,2.017-0.643,1.44,0.36
	C74.613,72.722,74.5,72.235,73.819,72.316z"/>
<path fill-rule="evenodd" clip-rule="evenodd" fill="#FFFFFF" d="M163.482,71.956c0.517,0.444,0.682,1.238,0.72,2.16
	c-0.646-0.045-0.76,0.441-1.44,0.36C162.822,73.457,163.421,72.976,163.482,71.956z"/>
<path fill-rule="evenodd" clip-rule="evenodd" fill="#FFFFFF" d="M178.246,73.396C178.636,75.306,177.152,73.822,178.246,73.396
	L178.246,73.396z"/>
<path fill-rule="evenodd" clip-rule="evenodd" fill="#FFFFFF" d="M77.06,74.836c-0.735,0.706-2.252,0.628-2.521,1.801
	c-0.519-0.202-0.879-0.562-1.081-1.081C73.747,73.568,75.755,74.219,77.06,74.836z"/>
<path fill-rule="evenodd" clip-rule="evenodd" d="M125.672,82.039c0.065-0.307-0.141-0.34-0.36-0.36
	c0.771-3.296-0.127-2.236-0.721-5.041c0.279-1.611,4.512-2.222,5.042-0.36c-1.605,2.545,1.264,1.208,1.08,3.961
	C130.474,82.268,127.613,82.817,125.672,82.039z M126.032,77.357c0.404,0.076,0.561,0.399,0.721,0.72
	c0.982,0.262,0.725-0.716,1.44-0.72C128.26,75.593,125.964,75.593,126.032,77.357z M126.752,79.518
	c-0.115,0.835,0.058,1.383,0.36,1.801c1.469,0.148,2.271-0.369,2.16-1.801C128.792,79.004,127.233,79.004,126.752,79.518z"/>
<path fill-rule="evenodd" clip-rule="evenodd" fill="#FFFFFF" d="M128.193,77.357c-0.716,0.004-0.458,0.982-1.44,0.72
	c-0.16-0.321-0.316-0.644-0.721-0.72C125.964,75.593,128.26,75.593,128.193,77.357z"/>
<path fill-rule="evenodd" clip-rule="evenodd" d="M60.855,88.16c-1.877,1.71-5.5,0.026-6.842-1.081
	c-3.22,0.861-6.449,1.713-10.803,1.44c-4.129-3.204-10.162-6.388-10.803-11.883C47.03,73.903,49.751,86.177,60.855,88.16z
	 M33.849,78.078c3.561,5.273,10.406,12.416,18.725,7.562C47.62,82.289,41.884,75.952,33.849,78.078z"/>
<path fill-rule="evenodd" clip-rule="evenodd" fill="#FFFFFF" d="M56.174,76.997c0.151-0.801,1.911-0.282,2.161,0
	c-0.053,0.787-0.907,0.773-1.801,0.72C56.593,77.299,56.455,77.077,56.174,76.997z"/>
<path fill-rule="evenodd" clip-rule="evenodd" fill="#FFFFFF" d="M52.573,85.639c-8.318,4.854-15.164-2.289-18.725-7.562
	C41.884,75.952,47.62,82.289,52.573,85.639z"/>
<path fill-rule="evenodd" clip-rule="evenodd" fill="#FFFFFF" d="M81.381,77.357c-0.721,0.719-1.052,1.829-2.161,2.16
	c-0.31-0.291-0.214-0.986-0.72-1.08C78.746,77.363,79.934,77.23,81.381,77.357z"/>
<path fill-rule="evenodd" clip-rule="evenodd" fill="#FFFFFF" d="M98.666,77.717c-0.493,0.947-1.517,1.365-1.801,2.521
	C96.036,79.386,97.172,77.442,98.666,77.717z"/>
<path fill-rule="evenodd" clip-rule="evenodd" fill="#FFFFFF" d="M100.106,77.717c1.271,0.168,1.971,0.91,2.88,1.44
	c-0.522,0.557-1.404,0.756-2.521,0.72C100.474,79.03,99.845,78.818,100.106,77.717z"/>
<path fill-rule="evenodd" clip-rule="evenodd" fill="#FFFFFF" d="M92.543,85.279c-0.651,0.669-1.818,0.822-2.881,1.08
	c1.314-3.204-4.769-7.745-6.122-2.88C74.408,76.305,93.518,77.468,92.543,85.279z"/>
<path fill-rule="evenodd" clip-rule="evenodd" fill="#FFFFFF" d="M68.777,78.438c0.646-0.046,0.76,0.441,1.44,0.36
	c-1.959,0.802-2.828,2.694-3.241,5.042c-0.29-0.19-0.584-0.375-1.08-0.36c-0.164-2.267,1.443-2.794,1.08-4.321
	C67.658,78.998,69.147,79.647,68.777,78.438z"/>
<path fill-rule="evenodd" clip-rule="evenodd" fill="#FFFFFF" d="M98.666,78.797c1.029,0.051,0.658,1.502,0.72,2.521
	c1.618,0.266,4.748-1.537,5.041,0.72c0.133,1.092-1.173,0.748-1.8,1.08c0.305,0.535,1.159,0.521,1.8,0.72
	c0.209,1.409-0.31,2.091-0.72,2.881c-3.015-0.827-2.904-4.778-7.562-3.961C96.949,81.403,98.57,80.863,98.666,78.797z"/>
<path fill-rule="evenodd" clip-rule="evenodd" fill="#FFFFFF" d="M129.273,79.518c0.111,1.432-0.691,1.949-2.16,1.801
	c-0.303-0.418-0.476-0.965-0.36-1.801C127.233,79.004,128.792,79.004,129.273,79.518z"/>
<path fill-rule="evenodd" clip-rule="evenodd" fill="#FFFFFF" d="M94.344,79.878c0.467,0.922,0.745,3.313,0.36,3.961
	C93.253,83.38,93.518,80.732,94.344,79.878z"/>
<path fill-rule="evenodd" clip-rule="evenodd" fill="#FFFFFF" d="M56.174,81.318c0.283-0.827,2.229-0.35,1.8,0.72
	C57.501,81.671,56.647,81.686,56.174,81.318z"/>
<path fill-rule="evenodd" clip-rule="evenodd" fill="#FFFFFF" d="M125.312,81.678c0.22,0.021,0.426,0.054,0.36,0.36
	C125.453,82.018,125.246,81.984,125.312,81.678z"/>
<path fill-rule="evenodd" clip-rule="evenodd" fill="#FFFFFF" d="M84.981,82.759c1.987-0.186,3.081,0.52,3.241,2.16
	C86.833,85.484,84.623,85.002,84.981,82.759z"/>
<path fill-rule="evenodd" clip-rule="evenodd" fill="#FFFFFF" d="M129.273,93.562c3.536,0.545,5.38,2.782,8.643,3.601
	c-5.059,7.226-18.01-0.229-13.684-9.002c1.447-0.052,0.952,0.923,0.72,1.8c4.703-0.339,5.738-4.345,7.922-7.202
	C139.471,84.476,134.395,93.177,129.273,93.562z"/>
<path fill-rule="evenodd" clip-rule="evenodd" fill="#FFFFFF" d="M74.179,83.119c-1.266,1.615-2.87,2.892-3.241,5.401
	C69.864,85.999,70.656,82.242,74.179,83.119z"/>
<path fill-rule="evenodd" clip-rule="evenodd" fill="#FFFFFF" d="M79.94,87.44c-3.826,0.701-1.372,6.249,1.44,6.481
	c-1.184,1.578-2.096,3.426-1.801,6.482c-8.604,1.315-10.604-16.394-3.241-16.205C77.986,84.242,79.057,85.871,79.94,87.44z"/>
<path fill-rule="evenodd" clip-rule="evenodd" fill="#FFFFFF" d="M99.025,84.199c2.146,2.224,1.084,6.011,0,8.643
	c-2.715,1.587-7.028,2.263-7.922-0.72C89.954,88.285,94.479,83.867,99.025,84.199z"/>
<path fill-rule="evenodd" clip-rule="evenodd" fill="#FFFFFF" d="M105.867,84.199c1.229,0.571,2.398,1.203,2.881,2.521
	C107.64,87.282,105.672,86.087,105.867,84.199z"/>
<path fill-rule="evenodd" clip-rule="evenodd" d="M149.078,85.279c1.871,0.655-1.324,1.874-1.44,2.881
	c1.521-0.054,3.998-0.904,4.682,1.08c1.063,3.086-3.094,4.604-5.041,3.241C144.843,90.777,146.102,86.077,149.078,85.279z
	 M147.998,89.96c-0.056,0.896,0.565,1.115,0.721,1.8c1.344,0.144,2.112-0.288,2.16-1.44
	C150.593,88.685,148.633,88.618,147.998,89.96z"/>
<path fill-rule="evenodd" clip-rule="evenodd" fill="#FFFFFF" d="M105.507,86c1.7,1.78,3.646,3.316,3.961,6.481
	c-1.051,0.09-1.243-0.678-1.801-1.08c3.329,5.92,0.938,16.686-1.44,22.326c-1.416-8.601,3.139-18.972-1.801-25.207
	C104.52,87.414,105.208,86.901,105.507,86z"/>
<path fill-rule="evenodd" clip-rule="evenodd" fill="#FFFFFF" d="M89.303,87.44c-1.384,1.257-0.996,4.286-3.601,4.321
	C85.596,89.015,86.879,87.657,89.303,87.44z"/>
<path fill-rule="evenodd" clip-rule="evenodd" fill="#FFFFFF" d="M101.545,87.44c6.975,4.71,2.03,17.177,3.241,25.927
	c-1.253-1.388-1.961-3.32-3.241-4.682c1.797-4.973,0.898-11.384-1.8-14.764C100.74,92.155,101.663,90.318,101.545,87.44z"/>
<path fill-rule="evenodd" clip-rule="evenodd" fill="#FFFFFF" d="M169.243,88.16c0.021-0.22,0.055-0.426,0.36-0.36
	C169.583,88.02,169.549,88.226,169.243,88.16z"/>
<path fill-rule="evenodd" clip-rule="evenodd" fill="#FFFFFF" d="M169.243,88.16C169.28,88.595,168.719,88.381,169.243,88.16
	L169.243,88.16z"/>
<path fill-rule="evenodd" clip-rule="evenodd" fill="#FFFFFF" d="M81.741,92.481c-1.77-0.198-3.29-2.674-1.8-3.961
	C82.004,88.257,82.575,91.001,81.741,92.481z"/>
<path fill-rule="evenodd" clip-rule="evenodd" fill="#FFFFFF" d="M150.878,90.321c-0.048,1.152-0.816,1.584-2.16,1.44
	c-0.155-0.686-0.776-0.904-0.721-1.8C148.633,88.618,150.593,88.685,150.878,90.321z"/>
<path fill-rule="evenodd" clip-rule="evenodd" fill="#FFFFFF" d="M89.663,89.96C89.318,88.465,90.741,89.888,89.663,89.96
	L89.663,89.96z"/>
<path fill-rule="evenodd" clip-rule="evenodd" fill="#FFFFFF" d="M89.663,89.96c-0.16,0.681,0.49,2.17-0.72,1.8
	C88.889,90.867,89.128,90.267,89.663,89.96z"/>
<path fill-rule="evenodd" clip-rule="evenodd" fill="#FFFFFF" d="M88.583,92.841c3.647,0.985,6.644,7.493,2.521,10.083
	C90.098,99.936,87.144,97.083,88.583,92.841z"/>
<path fill-rule="evenodd" clip-rule="evenodd" fill="#FFFFFF" d="M86.422,93.201c1.234-0.16-0.127,2.547,0.36,3.961
	c0.817,2.304,2.442,3.8,2.88,6.482c-1.504,0.184-2.439-0.201-3.241-0.72C87.069,99.397,85.098,95.05,86.422,93.201z"/>
<path fill-rule="evenodd" clip-rule="evenodd" fill="#FFFFFF" d="M163.482,94.282c0.359,0,0.72,0,1.08,0
	c1.247,4.292,3.725,9.215,2.881,14.403c-2.479-3.282-2.021-9.502-4.321-12.963C162.969,94.969,163.369,94.769,163.482,94.282z"/>
<path fill-rule="evenodd" clip-rule="evenodd" fill="#FFFFFF" d="M106.947,118.048c1.065,1.797-0.058,4.494-0.72,5.761
	c-8.109,4.043-8.59-1.052-10.443-8.642c-1.082-4.432-2.663-8.06-3.961-10.083c1.828-2.069,3.573-6.214,1.801-9.723
	c2.36,0.559,4.082-1.033,5.401-0.36c0.696,2.098,1.87,3.341,2.161,5.761c0.783,6.52-7.026,20.837-0.721,23.406
	C104.014,125.615,107.204,122.389,106.947,118.048z"/>
<path fill-rule="evenodd" clip-rule="evenodd" fill="#FFFFFF" d="M117.03,95.002c-1.199,8.763-2.955,16.97-9.362,20.525
	c1.772-5.79,2.612-12.512,3.241-19.445C112.857,95.63,114.843,95.216,117.03,95.002z"/>
<path fill-rule="evenodd" clip-rule="evenodd" fill="#FFFFFF" d="M81.381,96.082c0.534,4.387,2.134,7.708,6.122,8.642
	C82.77,106.155,79.975,100.81,81.381,96.082z"/>
<path fill-rule="evenodd" clip-rule="evenodd" fill="#FFFFFF" d="M84.622,96.802c0.828,0.852,0.129,3.232,0.36,4.681
	C82.905,100.678,83.791,98.328,84.622,96.802z"/>
<path fill-rule="evenodd" clip-rule="evenodd" fill="#FFFFFF" d="M158.081,97.162c0.418-0.059,0.641,0.08,0.72,0.36
	c0.335,6.147,2.217,10.747,5.401,14.043C158.779,112.011,156.324,102.708,158.081,97.162z"/>
<path fill-rule="evenodd" clip-rule="evenodd" fill="#FFFFFF" d="M126.032,99.683c1.865,1.136,4.237,1.764,7.202,1.8
	c-0.446,3.035-1.475,5.487-2.521,7.922C128.012,107.305,125.936,104.581,126.032,99.683z"/>
<path fill-rule="evenodd" clip-rule="evenodd" fill="#FFFFFF" d="M124.232,101.124c2.361,7,5.98,12.743,14.043,14.043
	c-1.361,3.68-4.102,5.98-6.481,8.642c-2.737-3.144-4.687-7.077-7.922-9.723c-1.783-0.103-2.148,1.213-3.601,1.44
	c-2.087-0.914-0.071-5.93-1.801-7.202C120.413,105.946,122.691,103.904,124.232,101.124z"/>
<path fill-rule="evenodd" clip-rule="evenodd" fill="#FFFFFF" d="M134.314,102.924c3.136,1.844,5.891,5.793,4.682,10.803
	c-3.633,0.271-5.229-1.492-7.202-2.881C132.678,108.25,133.731,105.822,134.314,102.924z"/>
<path fill-rule="evenodd" clip-rule="evenodd" fill="#FFFFFF" d="M162.761,107.965c8.32-1.265,3.981,18.574-0.72,20.526
	c0.834-4.361,4.679-10.64,3.24-17.285C164.934,109.633,163.431,109.216,162.761,107.965z"/>
<path fill-rule="evenodd" clip-rule="evenodd" fill="#FFFFFF" d="M117.75,109.766c0,0.72,0,1.44,0,2.161
	c-0.696-1.104-3.042-0.56-3.602-1.801C114.831,109.487,116.528,109.863,117.75,109.766z"/>
<path fill-rule="evenodd" clip-rule="evenodd" fill="#FFFFFF" d="M55.814,111.206C55.777,110.771,56.337,110.984,55.814,111.206
	L55.814,111.206z"/>
<path fill-rule="evenodd" clip-rule="evenodd" fill="#FFFFFF" d="M159.161,111.206c0.582-0.102,0.62,0.34,1.08,0.36
	c-0.504,2.48-1.784,5.817-2.16,9.002c-0.216,1.823,0.991,4.871-1.44,5.401C155.447,120.39,156.855,114.47,159.161,111.206z"/>
<path fill-rule="evenodd" clip-rule="evenodd" fill="#FFFFFF" d="M120.991,121.289c-2.796,2.245-6.745,3.337-11.163,3.961
	c-1.578-4.255,2.641-4.125,3.961-6.481c-2.873-0.233-3.108,2.172-5.401,2.521c0.178-1.263,0.537-2.344,0.36-3.961
	c2.617-1.464,3.229-4.933,7.202-5.042C118.518,114.399,119.913,117.686,120.991,121.289z"/>
<path fill-rule="evenodd" clip-rule="evenodd" fill="#FFFFFF" d="M57.254,115.527c2.052-0.849,3.339,1.013,4.321,1.44
	c-3.27,0.269-5.859-0.143-7.202-1.8C55.121,112.826,57.49,111.748,57.254,115.527z"/>
<path fill-rule="evenodd" clip-rule="evenodd" fill="#FFFFFF" d="M102.266,112.646c0.831,0.268,1.658,1.944,0,1.8
	C102.266,113.847,102.266,113.247,102.266,112.646z"/>
<path fill-rule="evenodd" clip-rule="evenodd" fill="#FFFFFF" d="M100.465,113.006c0.833,0.271,1.258,2.8-0.359,2.521
	C99.817,114.278,100.642,114.143,100.465,113.006z"/>
<path fill-rule="evenodd" clip-rule="evenodd" fill="#FFFFFF" d="M104.426,115.527c-0.094,1.054,0.814,1.106,0.721,2.161
	c-2.847-0.827-4.05,1.575-5.762,0.72C100.078,116.459,102.437,116.178,104.426,115.527z"/>
<path fill-rule="evenodd" clip-rule="evenodd" fill="#FFFFFF" d="M131.433,127.77c-0.92,0.16-1.655,0.505-2.16,1.08
	c-3.186-1.495-5.546-3.816-9.002-5.041c0.311-0.89,1.335-1.065,1.8-1.8c0.314-2.355-0.665-3.417-1.08-5.042
	c0.541-0.539,1.517-0.644,1.801-1.44C127.037,118.243,129.445,122.796,131.433,127.77z"/>
<path fill-rule="evenodd" clip-rule="evenodd" fill="#FFFFFF" d="M92.904,125.61c-11.903,4.146-26.666-1.561-34.209-6.842
	c5.617,0.023,10.294-3.027,14.764-2.521c2.883,0.327,6.087,3.718,9.002,5.401C85.894,123.63,88.77,125.172,92.904,125.61z"/>
<path fill-rule="evenodd" clip-rule="evenodd" fill="#FFFFFF" d="M102.626,118.768c1.356-0.277,1.721,0.439,2.881,0.36
	c0.457,4.222-6.265,5.559-6.122,0.72c2.18-0.379,2.769,0.832,4.321,1.08C104.626,120.33,102.301,119.961,102.626,118.768z"/>
<path fill-rule="evenodd" clip-rule="evenodd" fill="#FFFFFF" d="M1.44,120.928c1.867,0.059,4.417,2.54,5.761,4.321
	C4.668,126.969,3.466,122.023,1.44,120.928z"/>
<path fill-rule="evenodd" clip-rule="evenodd" fill="#FFFFFF" d="M70.938,126.33c0.621,2.74,1.053,5.669,1.8,8.282
	c2.322,0.559,4.852,0.909,7.562,1.08c0.105,1.858-2.836,3.592-3.601,5.762c11.97,9.068-0.669,32.955-14.404,34.209
	c1.184-6.042-5.325-7.357-7.202-11.523c0.138-3.223,1.777-4.944,3.241-6.842c-1.302-1.818-3.71-2.531-6.842-2.521
	c0.667-2.002-2.549-2.29-2.521-3.601c0.062-2.855,11.157-7.228,13.324-8.282c2.583,1.258,5.018,2.664,9.362,2.16
	c-2.051-1.189-5.296-1.186-7.202-2.521c1.57-0.95,4.195-0.846,6.122-1.44c-10.878-1.515-16.886,4.959-23.406,9.003
	c-3.803-2.982-10.5-5.602-10.083-10.803c0.205-2.545,4.685-6.133,7.562-8.643c4.054-3.536,9.565-8.875,17.284-7.922
	C65.3,123.144,67.983,125.762,70.938,126.33z"/>
<path fill-rule="evenodd" clip-rule="evenodd" fill="#FFFFFF" d="M107.667,123.449c1.503,0.287,0.736,3.935-0.721,3.602
	c0.095-1.055-0.813-1.106-0.72-2.161C107.143,124.845,107.624,124.366,107.667,123.449z"/>
<path fill-rule="evenodd" clip-rule="evenodd" fill="#FFFFFF" d="M136.115,142.534c-4.646-0.274-9.301-0.542-14.044-0.72
	c-3.557,4.485-5.957,10.127-9.362,14.764c-7.113,1.31-16.837,3.005-23.766,0.36c4.085-8.823,1.58-21.308-4.321-26.287
	c2.197,1.059,4.532-0.031,7.202,1.44c2.544,1.402,5.928,8.489,10.443,7.922c3.868-0.485,4.468-6.613,5.041-11.522
	c1.657-2.263,6.821-2.292,10.443-3.962c2.195-1.012,8.085,4.13,10.442,5.762c3.538,2.45,6.656,4.722,8.642,6.842
	C136.053,138.392,136.94,141.319,136.115,142.534z M115.589,131.731c-1.32-0.275-2.537,0.992-3.601,1.801
	C111.795,143.541,122.226,133.114,115.589,131.731z"/>
<path fill-rule="evenodd" clip-rule="evenodd" fill="#FFFFFF" d="M159.161,124.529c0.733,0.107,0.959,0.722,1.44,1.081
	c-2.078,6.084-8.18,8.145-16.204,8.282c-0.599-0.843-2.011-0.87-1.801-2.521C148.819,132.423,156.817,129.686,159.161,124.529z"/>
<path fill-rule="evenodd" clip-rule="evenodd" fill="#FFFFFF" d="M154.479,124.889c0.873,0.208,0.801,1.36,1.081,2.161
	c-2.509,1.333-5.264,2.418-8.282,3.24c-0.362-0.479-0.341-1.34-1.08-1.44C148.103,126.675,151.838,126.329,154.479,124.889z"/>
<path fill-rule="evenodd" clip-rule="evenodd" fill="#FFFFFF" d="M100.106,126.33c-0.466,1.936-1.903,2.898-1.44,5.762
	c1.792-2.288,1.993-6.168,6.121-6.122c2.558,4.05,0.029,10.613-2.521,12.964c-4.704-2.138-8.108-5.576-10.803-9.723
	C93.373,126.74,96.683,124.305,100.106,126.33z"/>
<path fill-rule="evenodd" clip-rule="evenodd" fill="#FFFFFF" d="M8.642,125.969c14.795-0.15,22.687,9.722,27.727,20.525
	c-1.312,0.729-2.842,1.239-3.601,2.521c-1.097-0.583-1.553-1.808-2.88-2.16c-0.159,1.731,2.531,2.494,1.8,3.601
	c-1.201,1.351-3.243-2.452-5.042-2.88c0.686,2.435,2.78,3.462,4.681,4.681c-2.709,0.5-5.572-1.387-7.922-2.881
	c-6.902-4.389-13.826-11.251-16.204-20.165c1.098,0.462,0.963,2.157,2.521,2.16c-0.485-1.676-1.258-3.062-2.521-3.961
	c1.64-1.226,3.363,3.232,6.122,3.241C13.149,129.138,9.982,127.514,8.642,125.969z"/>
<path fill-rule="evenodd" clip-rule="evenodd" fill="#FFFFFF" d="M72.378,126.69c2.511,0.25,4.311,1.21,7.202,1.08
	c5.845,4.861,11.158,11.27,10.083,21.245c-0.958,8.89-7.534,15.58-13.323,19.445c5.021-5.916,10.779-20.836,2.161-27.007
	c0.875-2.485,3.204-3.518,3.961-6.121c-1.967-1.514-5.938-1.024-8.642-1.801C73.253,131.337,72.884,128.945,72.378,126.69z"/>
<path fill-rule="evenodd" clip-rule="evenodd" fill="#FFFFFF" d="M145.837,130.651c-3.828-0.527-8.021-1.905-11.883-0.36
	C132.232,126.065,146.058,127.124,145.837,130.651z"/>
<path fill-rule="evenodd" clip-rule="evenodd" fill="#FFFFFF" d="M83.901,128.491c1.447-0.834,4.436-0.125,6.481-0.36
	c-0.614,0.581-0.33,1.856,0.36,2.16C88.658,130.928,85.942,129.095,83.901,128.491z"/>
<path fill-rule="evenodd" clip-rule="evenodd" fill="#FFFFFF" d="M131.793,128.85c0.511,0.543,1.333,1.554,0.721,2.161
	c-1.075-0.006-1.225-0.937-2.161-1.08C130.452,129.189,131.695,129.591,131.793,128.85z"/>
<path fill-rule="evenodd" clip-rule="evenodd" d="M111.989,133.532c1.063-0.809,2.28-2.076,3.601-1.801
	C122.226,133.114,111.795,143.541,111.989,133.532z M113.069,134.251c0.231,1.089,0.562,2.078,1.801,2.161
	c1.013-0.308,1.617-1.023,1.44-2.521C115.466,132.706,113.976,133.55,113.069,134.251z"/>
<path fill-rule="evenodd" clip-rule="evenodd" fill="#FFFFFF" d="M116.31,133.892c0.177,1.497-0.428,2.213-1.44,2.521
	c-1.238-0.083-1.569-1.072-1.801-2.161C113.976,133.55,115.466,132.706,116.31,133.892z"/>
<path fill-rule="evenodd" clip-rule="evenodd" fill="#FFFFFF" d="M144.397,134.972c-0.814,1.644-4.939,4.543-6.122,1.44
	C141.145,136.805,141.9,133.83,144.397,134.972z"/>
<path fill-rule="evenodd" clip-rule="evenodd" fill="#FFFFFF" d="M149.798,183.584C150.322,183.363,149.761,183.149,149.798,183.584
	c-4.914,8.271-10.191,15.22-18.005,20.525c-7.736,5.253-16.812,9.041-27.007,11.883c-0.3-1.262,2.243-3.336,3.961-4.681
	c1.95-1.527,4.437-2.926,6.481-3.602c-14.799,0.432-15.079,21.895-31.328,21.605c-12.954-0.229-25.716-20.224-18.004-31.688
	c3.007,7.795,5.214,16.392,11.883,20.524c-2.075-3.979-5.43-7.286-7.562-12.243c-3.413-7.932-4.389-18.827-2.881-29.887
	c7.905-4.939,16.38-9.308,20.525-18.005c7.499,2.886,17.87,1.437,25.567-0.36c3.413-4.389,6.014-9.59,9.002-14.403
	c4.895,0.026,9.594,0.248,14.044,0.72c1.564-0.476,1.005-3.076,1.44-4.681c1.037-0.85,1.726,0.96,2.16,1.44
	c7.588,8.374,12.851,18.305,12.243,34.208c1.323-3.689,1.46-10.001,0.36-14.043c1.183-0.345,3.14,2.138,4.681,3.601
	c1.703,1.616,3.844,3.245,4.682,5.041c-5.794,4.89-8.258,13.108-7.922,24.127c-3.069-0.734-7.083-0.092-9.362,1.08
	C145.609,191.636,149.149,188.098,149.798,183.584z"/>
<path fill-rule="evenodd" clip-rule="evenodd" fill="#FFFFFF" d="M189.409,148.656c-0.81,0.631-2.709,0.172-3.602,0.72
	c0.056-3.176-1.277-4.964-3.961-5.401C183.61,138.237,191.444,141.484,189.409,148.656z"/>
<path fill-rule="evenodd" clip-rule="evenodd" fill="#FFFFFF" d="M36.009,141.814c0.28,0.079,0.418,0.302,0.36,0.72
	C36.088,142.455,35.951,142.232,36.009,141.814z"/>
<path fill-rule="evenodd" clip-rule="evenodd" fill="#FFFFFF" d="M36.369,142.534c0.281,0.08,0.418,0.302,0.36,0.721
	C36.449,143.174,36.311,142.953,36.369,142.534z"/>
<path fill-rule="evenodd" clip-rule="evenodd" fill="#FFFFFF" d="M36.729,143.254C37.165,143.217,36.951,143.778,36.729,143.254
	L36.729,143.254z"/>
<path fill-rule="evenodd" clip-rule="evenodd" fill="#FFFFFF" d="M37.449,144.334C37.014,144.371,37.228,143.811,37.449,144.334
	L37.449,144.334z"/>
<path fill-rule="evenodd" clip-rule="evenodd" fill="#FFFFFF" d="M37.449,144.334c0.453,0.147,0.736,0.464,0.72,1.08
	C37.717,145.267,37.434,144.951,37.449,144.334z"/>
<path fill-rule="evenodd" clip-rule="evenodd" fill="#FFFFFF" d="M182.926,145.415c0.959,0.962,1.562,2.28,1.801,3.961
	c-7.287,5.089-5.849,17.924-10.442,27.007c-3.767,7.446-7.119,13.708-8.643,20.886c-3.66-2.821-6.143-6.82-10.082-9.362
	c0.161-3.8,1.066-6.855,2.16-9.723c2.759,0.843,4.26,2.942,7.202,3.601c0.439,0.483-0.032,2.085-0.36,2.881
	c4.19-3.761,5.42-10.411,7.202-17.284C174.074,158.469,174.417,147.187,182.926,145.415z"/>
<path fill-rule="evenodd" clip-rule="evenodd" fill="#FFFFFF" d="M190.849,145.415c0.864,1.056,0.726,3.115,0.72,5.041
	C189.549,149.807,191.076,147.369,190.849,145.415z"/>
<path fill-rule="evenodd" clip-rule="evenodd" fill="#FFFFFF" d="M50.053,154.777c-3.16,3.202-7.333,5.391-10.083,9.003
	c-1.322,0.001-1.38-1.261-2.161-1.801c0.682-1.599,1.498-3.063,2.161-4.682c-0.948-0.216-2.6,1.953-2.881,3.602
	c-3.938-0.609-1.215-5.534-0.72-7.922c-1.116-0.027-2.357,2.917-2.521,5.041c-3.404-5.177,0.817-10.862,5.401-11.523
	C42.673,149.433,47.877,150.591,50.053,154.777z"/>
<path fill-rule="evenodd" clip-rule="evenodd" fill="#FFFFFF" d="M188.688,150.096c-0.229,3.131-1.581,5.141-2.521,7.562
	c2.056,0.01,2.597-4.602,4.321-6.121c-0.036,9.468-5.111,18.047-8.643,25.926c-3.448,7.695-7.249,16.485-14.764,20.166
	c0.769-8.717,7.198-15.778,10.083-23.406c2.774-7.338,1.167-17.816,7.201-21.605c-0.182,2.938-1.258,4.983-1.44,7.922
	c1.468-2.734,3.059-5.344,2.881-9.723C186.953,150.761,187.391,150,188.688,150.096z"/>
<path fill-rule="evenodd" clip-rule="evenodd" fill="#FFFFFF" d="M56.534,157.297c-1.199,1.562-2.533,2.989-2.521,5.762
	c-3.016,1.306-6.333,2.31-6.842,6.122c-1.812,0.108-3.358,0.482-4.321,1.439c-1.472-1.109-1.831-4.636-1.08-6.841
	c1.442-0.002,1.194,1.687,2.161,2.16c0.549-0.573-0.284-2.819-1.081-3.241c1.002-1.759,3.286-2.235,4.682-3.601
	c1.054-0.094,1.106,0.814,2.16,0.72c0.893-0.685-1.635-0.98-1.08-2.521C50.672,155.486,54.21,155.816,56.534,157.297z"/>
<path fill-rule="evenodd" clip-rule="evenodd" fill="#FFFFFF" d="M35.649,162.699c1.776,0.504,2.289,2.273,4.321,2.521
	c-0.129,3.249,1.035,5.206,1.8,7.562c2.218-0.543,2.729-2.792,6.122-2.161c0.667-0.653,0.468-2.172,1.08-2.88
	c2.667,1.534,4.415,3.987,6.482,6.121c-2.631,7.406-17.568,4.597-22.686,1.44C33.178,170.55,34.381,166.592,35.649,162.699z"/>
<path fill-rule="evenodd" clip-rule="evenodd" fill="#FFFFFF" d="M54.374,184.665c-1.589-0.45-2.333-1.747-3.601-2.521
	c1.139-3.472,6.116-4.654,6.122-7.922c0.005-3.479-5.396-4.219-6.482-7.922c0.492,0.127,1.792-1.439,2.521-1.44
	c1.907-0.003,8.036,6.874,8.282,8.282C62.116,178.295,55.866,180.683,54.374,184.665z"/>
<path fill-rule="evenodd" clip-rule="evenodd" fill="#FFFFFF" d="M162.761,170.261c2.074,1.407,0.669,6.293,1.081,9.362
	c-2.172-0.59-3.646-1.876-5.402-2.881C159.245,173.946,161.14,172.241,162.761,170.261z"/>
<path fill-rule="evenodd" clip-rule="evenodd" fill="#FFFFFF" d="M49.333,183.224c1.946,0.335,2.833,1.729,3.601,3.241
	C51.209,187.407,48.364,184.975,49.333,183.224z"/>
<path fill-rule="evenodd" clip-rule="evenodd" d="M149.798,183.584C149.761,183.149,150.322,183.363,149.798,183.584
	L149.798,183.584z"/>
<path fill-rule="evenodd" clip-rule="evenodd" fill="#FFFFFF" d="M155.2,190.066c1.7-0.02,2.104,1.258,3.24,1.801
	c-0.512,0.928-0.843,2.037-2.16,2.16C155.542,193.084,155.025,191.921,155.2,190.066z"/>
<path fill-rule="evenodd" clip-rule="evenodd" fill="#FFFFFF" d="M65.537,192.227c1.726,3.659-1.323,4.332-2.521,7.201
	c-0.948,2.271-0.005,5.395-0.72,7.922c-0.4,1.413-2.934,3.026-3.961,5.042c-2.147,4.213-2.268,10.455-3.601,15.483
	c-2.024,7.636-5.266,14.857-14.404,14.764c3.833-3.009,9.018-4.666,9.002-11.522c-1.92,5.413-9.742,14.049-15.124,7.202
	c7.896-1.106,11.87-6.136,12.243-14.765c-2.835,5.688-3.688,13.356-12.603,12.964c-3.159-4.482,2.104-9.147,5.041-13.684
	c4.71-7.273,8.356-12.867,12.963-20.165C55.112,197.508,57.944,188.798,65.537,192.227z"/>
</svg>
